<?xml version="1.0" ?><!DOCTYPE svg  PUBLIC '-//W3C//DTD SVG 1.1//EN'  'http://www.w3.org/Graphics/SVG/1.1/DTD/svg11.dtd'><svg height="30px" id="Layer_1" style="enable-background:new 0 0 128 128;" version="1.1" viewBox="0 0 128 128" width="30px" fill="#f9f9f9" xml:space="preserve" xmlns="http://www.w3.org/2000/svg" xmlns:xlink="http://www.w3.org/1999/xlink"><style type="text/css">
<![CDATA[
	.st0{fill-rule:evenodd;clip-rule:evenodd;}
]]>
</style><g><path d="M86.298,14.776c-7.055-3.211-14.557-4.859-22.3-4.859c-6.443,0-12.787,1.245-18.885,3.534   c1.43,1.299,39.344,35.779,41.185,37.46C86.298,48.427,86.298,15.538,86.298,14.776z"/><path d="M92.004,17.882c0,2.154,0,62.918,0,64.069c1.111,0,22.154,0,23.016,0c2.011-5.768,3.063-11.771,3.063-17.838   C118.083,45.278,108.09,27.695,92.004,17.882z"/><path d="M41.843,113.527c5.498,2.47,11.249,4.003,17.173,4.556h9.916c18.684-1.744,35.363-13.284,43.651-30.419   c-1.958,0-69.578,0-70.74,0C41.843,88.788,41.843,112.751,41.843,113.527z"/><path d="M36.163,110.399c0-2.117,0-44.103,0-46.599c-1.805,1.647-21.725,19.787-22.347,20.352   C18.151,95.044,26.065,104.285,36.163,110.399z"/><path d="M39.36,15.929C21.198,25.267,9.917,43.679,9.917,64.113c0,4.652,0.702,9.384,1.967,14.075   c1.47-1.338,47.004-42.788,47.94-43.646C58.909,33.711,39.973,16.487,39.36,15.929z"/></g></svg>