<?xml version="1.0" ?><!DOCTYPE svg  PUBLIC '-//W3C//DTD SVG 1.1//EN'  'http://www.w3.org/Graphics/SVG/1.1/DTD/svg11.dtd'><svg height="30px" id="Layer_1" style="enable-background:new 0 0 128 128;" version="1.1" viewBox="0 0 128 128" width="30px" fill="#f9f9f9" xml:space="preserve" xmlns="http://www.w3.org/2000/svg" xmlns:xlink="http://www.w3.org/1999/xlink"><style type="text/css">
<![CDATA[
	.st0{fill-rule:evenodd;clip-rule:evenodd;}
]]>
</style><g><path d="M70.183,52.803l7.983,3.717l11.899-3.551v-8.26C89.645,30.656,78.157,19.381,64,19.381   c-14.107,0-25.566,11.191-26.067,25.175v37.727c0,3.416-2.771,6.185-6.185,6.185s-6.183-2.769-6.183-6.185V66.295H5.575   c0,0,0,16.016,0,16.203c0,14.427,11.693,26.122,26.121,26.122c14.3,0,25.89-11.496,26.09-25.745l0.027-37.266   c0-3.415,2.771-6.183,6.187-6.183c3.414,0,6.183,2.768,6.183,6.183V52.803z"/><path d="M102.435,66.295v16.735c0,3.415-2.769,6.184-6.183,6.184c-3.416,0-6.187-2.769-6.187-6.184V66.616l-11.899,3.551   l-7.983-3.719v16.284c0.126,14.316,11.774,25.888,26.121,25.888c14.427,0,26.121-11.694,26.121-26.122c0-0.187,0-16.203,0-16.203   H102.435z"/></g></svg>